<svg width="208" height="101" viewBox="0 0 208 101" fill="none" xmlns="http://www.w3.org/2000/svg">
<path d="M207 22V75H194V62.9054C196.338 59.3655 197.741 55.039 197.741 50.4174C197.741 45.7959 196.338 41.4694 194 37.9295V22H207Z" stroke="#00FF94" stroke-width="2" stroke-miterlimit="10"/>
<path d="M6 10.7998V90.1998H3.9C2.3 90.1998 1 89.0998 1 87.6998V13.2998C1 11.8998 2.3 10.7998 3.9 10.7998H6Z" stroke="#00FF94" stroke-width="2" stroke-miterlimit="10"/>
<path d="M18.8984 38.2998V61.7998H39.7984V38.2998H18.8984ZM43.7984 38.2998V61.7998H63.6984V38.2998H43.7984ZM67.6984 38.2998V61.7998H87.5984V38.2998H67.6984ZM91.5984 38.2998V61.7998H111.498V38.2998H91.5984ZM115.498 38.2998V61.7998H135.398V38.2998H115.498ZM157.998 38.2998H139.398V61.7998H157.398C155.398 58.4998 154.298 54.5998 154.298 50.4998C154.298 45.9998 155.598 41.7998 157.998 38.2998Z" stroke="#00FF94" stroke-width="2" stroke-miterlimit="10"/>
<path d="M193.9 11.3849V37.7938C191.904 34.9038 189.11 32.512 185.917 30.8179C184.72 30.2199 183.522 29.7217 182.225 29.323C180.229 28.7251 178.134 28.4261 175.938 28.4261C171.049 28.4261 166.658 30.0206 163.066 32.7113V30.4192C163.066 29.323 162.168 28.5258 161.07 28.5258C159.972 28.5258 159.074 29.4227 159.074 30.4192V36.4983C158.575 36.9966 158.176 37.5945 157.777 38.1924H139.217V30.3196C139.217 29.2234 138.318 28.4261 137.221 28.4261C136.123 28.4261 135.225 29.323 135.225 30.3196V38.1924H115.367V30.3196C115.367 29.2234 114.469 28.4261 113.372 28.4261C112.274 28.4261 111.376 29.323 111.376 30.3196V38.1924H91.6178V30.3196C91.6178 29.2234 90.7197 28.4261 89.6221 28.4261C88.5244 28.4261 87.6263 29.323 87.6263 30.3196V38.1924H67.7686V30.3196C67.7686 29.2234 66.8705 28.4261 65.7728 28.4261C64.6752 28.4261 63.7771 29.323 63.7771 30.3196V38.1924H43.9193V30.3196C43.9193 29.2234 43.0212 28.4261 41.9236 28.4261C40.8259 28.4261 39.9278 29.323 39.9278 30.3196V38.1924H19.0722V30.3196C19.0722 29.2234 18.1741 28.4261 17.0764 28.4261C15.9788 28.4261 15.0807 29.323 15.0807 30.3196V38.1924C15.0807 45.467 15.0807 54.436 15.0807 61.6117V70.3814C15.0807 71.4777 15.9788 72.2749 17.0764 72.2749C18.1741 72.2749 19.0722 71.378 19.0722 70.3814V61.6117H39.9278V70.3814C39.9278 71.4777 40.8259 72.2749 41.9236 72.2749C43.0212 72.2749 43.9193 71.378 43.9193 70.3814V61.6117H63.7771V70.3814C63.7771 71.4777 64.6752 72.2749 65.7728 72.2749C66.8705 72.2749 67.7686 71.378 67.7686 70.3814V61.6117H87.6263V70.3814C87.6263 71.4777 88.5244 72.2749 89.6221 72.2749C90.7197 72.2749 91.6178 71.378 91.6178 70.3814V61.6117H111.476V70.3814C111.476 71.4777 112.374 72.2749 113.471 72.2749C114.569 72.2749 115.467 71.378 115.467 70.3814V61.6117H135.325V70.3814C135.325 71.4777 136.223 72.2749 137.321 72.2749C138.418 72.2749 139.316 71.378 139.316 70.3814V61.6117H157.278C157.877 62.6082 158.476 63.5052 159.174 64.3024V70.3814C159.174 71.4777 160.072 72.2749 161.17 72.2749C162.268 72.2749 163.166 71.378 163.166 70.3814V68.0893C166.758 70.7801 171.248 72.3746 176.038 72.3746C178.234 72.3746 180.329 72.0756 182.325 71.4777C183.622 71.079 184.82 70.5808 186.017 69.9828C189.21 68.3883 191.904 65.9966 194 63.0069V89.4158C194 91.0103 192.803 92.4055 191.006 93.2028V83.4364C191.006 80.5464 188.512 78.2543 185.518 78.2543H182.524C179.531 78.2543 177.036 80.5464 177.036 83.4364V93.701C177.036 93.8007 177.036 93.8007 177.036 93.9003H168.055C168.055 93.8007 168.055 93.8007 168.055 93.701V83.5361C168.055 80.646 165.561 78.354 162.567 78.354H159.573C156.58 78.354 154.085 80.646 154.085 83.5361V93.8007C154.085 93.9003 154.085 93.9003 154.085 94H144.605V84.134C144.605 81.244 142.011 78.8522 138.917 78.8522H135.824C132.73 78.8522 130.136 81.244 130.136 84.134V94H120.756V84.134C120.756 81.244 118.161 78.8522 115.068 78.8522H111.975C108.881 78.8522 106.287 81.244 106.287 84.134V94H97.0064V84.134C97.0064 81.244 94.5117 78.8522 91.3185 78.8522H88.225C85.1316 78.8522 82.5372 81.244 82.5372 84.134V94H73.1571V84.134C73.1571 81.244 70.5626 78.8522 67.4692 78.8522H64.3758C61.2824 78.8522 58.6879 81.244 58.6879 84.134V94H49.3079V84.134C49.3079 81.244 46.7134 78.8522 43.62 78.8522H40.5265C37.4331 78.8522 34.8386 81.244 34.8386 84.134V94H25.4586V84.134C25.4586 81.244 22.8641 78.8522 19.7707 78.8522H16.6773C13.5839 78.8522 10.9894 81.244 10.9894 84.134V93.8007C8.19533 93.4021 6 91.6082 6 89.4158V11.3849C6 9.19244 8.09554 7.39863 10.9894 7V17.2646C10.9894 20.1546 13.5839 22.5464 16.6773 22.5464H19.7707C22.8641 22.5464 25.4586 20.1546 25.4586 17.2646V7H34.8386V17.3643C34.8386 20.2543 37.3333 22.646 40.5265 22.646H43.62C46.7134 22.646 49.3079 20.2543 49.3079 17.3643V7H58.6879V17.3643C58.6879 20.2543 61.2824 22.646 64.3758 22.646H67.4692C70.5626 22.646 73.1571 20.2543 73.1571 17.3643V7H82.5372V17.3643C82.5372 20.2543 85.0318 22.646 88.225 22.646H91.3185C94.4119 22.646 97.0064 20.2543 97.0064 17.3643V7H106.386V17.3643C106.386 20.2543 108.981 22.646 112.074 22.646H115.168C118.261 22.646 120.856 20.2543 120.856 17.3643V7H130.236V17.3643C130.236 20.2543 132.73 22.646 135.924 22.646H139.017C142.11 22.646 144.705 20.2543 144.705 17.3643V7H154.085V16.567C154.085 19.457 156.58 21.7491 159.573 21.7491H162.567C165.561 21.7491 168.055 19.457 168.055 16.567V7H177.036V16.567C177.036 19.457 179.531 21.7491 182.524 21.7491H185.518C188.512 21.7491 191.006 19.457 191.006 16.567V7.59794C192.703 8.39519 193.9 9.79038 193.9 11.3849Z" stroke="#00FF94" stroke-width="2" stroke-miterlimit="10"/>
<path d="M39.7984 38.2998H18.8984V61.7998H39.7984V38.2998Z" stroke="#00FF94" stroke-width="2" stroke-miterlimit="10"/>
<path d="M63.7008 38.2998H43.8008V61.7998H63.7008V38.2998Z" stroke="#00FF94" stroke-width="2" stroke-miterlimit="10"/>
<path d="M87.5992 38.2998H67.6992V61.7998H87.5992V38.2998Z" stroke="#00FF94" stroke-width="2" stroke-miterlimit="10"/>
<path d="M111.502 38.2998H91.6016V61.7998H111.502V38.2998Z" stroke="#00FF94" stroke-width="2" stroke-miterlimit="10"/>
<path d="M135.4 38.2998H115.5V61.7998H135.4V38.2998Z" stroke="#00FF94" stroke-width="2" stroke-miterlimit="10"/>
<path d="M154.298 50.4998C154.298 54.5998 155.398 58.4998 157.398 61.7998H139.398V38.2998H157.998C155.598 41.7998 154.298 45.9998 154.298 50.4998Z" stroke="#00FF94" stroke-width="2" stroke-miterlimit="10"/>
<path d="M25.3984 6.8V17.3C25.3984 20.2 22.7984 22.6 19.6984 22.6H16.5984C13.4984 22.6 10.8984 20.2 10.8984 17.3V6.8C10.8984 3.9 13.4984 1.5 16.5984 1.5H19.6984C22.7984 1.5 25.3984 3.8 25.3984 6.8Z" stroke="#00FF94" stroke-width="2" stroke-miterlimit="10"/>
<path d="M49.3008 6.8V17.3C49.3008 20.2 46.7008 22.6 43.6008 22.6H40.5008C37.4008 22.6 34.8008 20.2 34.8008 17.3V6.8C34.8008 3.9 37.3008 1.5 40.5008 1.5H43.6008C46.7008 1.5 49.3008 3.8 49.3008 6.8Z" stroke="#00FF94" stroke-width="2" stroke-miterlimit="10"/>
<path d="M73.1992 6.8V17.3C73.1992 20.2 70.5992 22.6 67.4992 22.6H64.3992C61.2992 22.6 58.6992 20.2 58.6992 17.3V6.8C58.6992 3.9 61.2992 1.5 64.3992 1.5H67.4992C70.5992 1.5 73.1992 3.8 73.1992 6.8Z" stroke="#00FF94" stroke-width="2" stroke-miterlimit="10"/>
<path d="M97 6.8V17.3C97 20.2 94.5 22.6 91.3 22.6H88.2C85.1 22.6 82.5 20.2 82.5 17.3V6.8C82.5 3.9 85 1.5 88.2 1.5H91.3C94.5 1.5 97 3.8 97 6.8Z" stroke="#00FF94" stroke-width="2" stroke-miterlimit="10"/>
<path d="M120.898 6.8V17.3C120.898 20.2 118.298 22.6 115.198 22.6H112.098C108.998 22.6 106.398 20.2 106.398 17.3V6.8C106.398 3.9 108.998 1.5 112.098 1.5H115.198C118.398 1.5 120.898 3.8 120.898 6.8Z" stroke="#00FF94" stroke-width="2" stroke-miterlimit="10"/>
<path d="M144.801 6.8V17.3C144.801 20.2 142.201 22.6 139.101 22.6H136.001C132.901 22.6 130.301 20.2 130.301 17.3V6.8C130.301 3.9 132.801 1.5 136.001 1.5H139.101C142.301 1.5 144.801 3.8 144.801 6.8Z" stroke="#00FF94" stroke-width="2" stroke-miterlimit="10"/>
<path d="M168.199 6.2V16.5C168.199 19.4 165.699 21.7 162.699 21.7H159.699C156.699 21.7 154.199 19.4 154.199 16.5V6.2C154.199 3.3 156.699 1 159.699 1H162.699C165.699 1 168.199 3.3 168.199 6.2Z" stroke="#00FF94" stroke-width="2" stroke-miterlimit="10"/>
<path d="M191.102 6.2V16.5C191.102 19.4 188.602 21.7 185.602 21.7H182.602C179.602 21.7 177.102 19.4 177.102 16.5V6.2C177.102 3.3 179.602 1 182.602 1H185.602C188.602 1 191.102 3.3 191.102 6.2Z" stroke="#00FF94" stroke-width="2" stroke-miterlimit="10"/>
<path d="M25.3984 84.2004V94.7004C25.3984 97.6004 22.7984 100 19.6984 100H16.5984C13.4984 100 10.8984 97.6004 10.8984 94.7004V84.2004C10.8984 81.3004 13.4984 78.9004 16.5984 78.9004H19.6984C22.7984 78.9004 25.3984 81.3004 25.3984 84.2004Z" stroke="#00FF94" stroke-width="2" stroke-miterlimit="10"/>
<path d="M49.3008 84.2004V94.7004C49.3008 97.6004 46.7008 100 43.6008 100H40.5008C37.4008 100 34.8008 97.6004 34.8008 94.7004V84.2004C34.8008 81.3004 37.3008 78.9004 40.5008 78.9004H43.6008C46.7008 78.9004 49.3008 81.3004 49.3008 84.2004Z" stroke="#00FF94" stroke-width="2" stroke-miterlimit="10"/>
<path d="M73.1992 84.2004V94.7004C73.1992 97.6004 70.5992 100 67.4992 100H64.3992C61.2992 100 58.6992 97.6004 58.6992 94.7004V84.2004C58.6992 81.3004 61.2992 78.9004 64.3992 78.9004H67.4992C70.5992 78.9004 73.1992 81.3004 73.1992 84.2004Z" stroke="#00FF94" stroke-width="2" stroke-miterlimit="10"/>
<path d="M97 84.2004V94.7004C97 97.6004 94.5 100 91.3 100H88.2C85.1 100 82.5 97.6004 82.5 94.7004V84.2004C82.5 81.3004 85 78.9004 88.2 78.9004H91.3C94.5 78.9004 97 81.3004 97 84.2004Z" stroke="#00FF94" stroke-width="2" stroke-miterlimit="10"/>
<path d="M120.898 84.2004V94.7004C120.898 97.6004 118.298 100 115.198 100H112.098C108.998 100 106.398 97.6004 106.398 94.7004V84.2004C106.398 81.3004 108.998 78.9004 112.098 78.9004H115.198C118.398 78.9004 120.898 81.3004 120.898 84.2004Z" stroke="#00FF94" stroke-width="2" stroke-miterlimit="10"/>
<path d="M144.801 84.2004V94.7004C144.801 97.6004 142.201 100 139.101 100H136.001C132.901 100 130.301 97.6004 130.301 94.7004V84.2004C130.301 81.3004 132.801 78.9004 136.001 78.9004H139.101C142.301 78.9004 144.801 81.3004 144.801 84.2004Z" stroke="#00FF94" stroke-width="2" stroke-miterlimit="10"/>
<path d="M168.199 83.7001V94.0001C168.199 94.1001 168.199 94.1001 168.199 94.2001C168.099 97.0001 165.699 99.2001 162.699 99.2001H159.699C156.799 99.2001 154.299 97.0001 154.199 94.2001C154.199 94.1001 154.199 94.1001 154.199 94.0001V83.7001C154.199 80.8001 156.699 78.5001 159.699 78.5001H162.699C165.699 78.4001 168.199 80.8001 168.199 83.7001Z" stroke="#00FF94" stroke-width="2" stroke-miterlimit="10"/>
<path d="M191.102 83.7001V94.0001C191.102 96.9001 188.602 99.2001 185.602 99.2001H182.602C179.702 99.2001 177.202 97.0001 177.102 94.2001C177.102 94.1001 177.102 94.1001 177.102 94.0001V83.7001C177.102 80.8001 179.602 78.5001 182.602 78.5001H185.602C188.602 78.4001 191.102 80.8001 191.102 83.7001Z" stroke="#00FF94" stroke-width="2" stroke-miterlimit="10"/>
<path d="M18.8984 30.4V70.6C18.8984 71.7 17.9984 72.5 16.8984 72.5C15.7984 72.5 14.8984 71.6 14.8984 70.6V30.4C14.8984 29.3 15.7984 28.5 16.8984 28.5C17.9984 28.5 18.8984 29.3 18.8984 30.4Z" stroke="#00FF94" stroke-width="2" stroke-miterlimit="10"/>
<path d="M43.8008 30.4V70.6C43.8008 71.7 42.9008 72.5 41.8008 72.5C40.7008 72.5 39.8008 71.6 39.8008 70.6V30.4C39.8008 29.3 40.7008 28.5 41.8008 28.5C42.9008 28.5 43.8008 29.3 43.8008 30.4Z" stroke="#00FF94" stroke-width="2" stroke-miterlimit="10"/>
<path d="M67.6992 30.4V70.6C67.6992 71.7 66.7992 72.5 65.6992 72.5C64.5992 72.5 63.6992 71.6 63.6992 70.6V30.4C63.6992 29.3 64.5992 28.5 65.6992 28.5C66.7992 28.5 67.6992 29.3 67.6992 30.4Z" stroke="#00FF94" stroke-width="2" stroke-miterlimit="10"/>
<path d="M91.6016 30.4V70.6C91.6016 71.7 90.7016 72.5 89.6016 72.5C88.5016 72.5 87.6016 71.6 87.6016 70.6V30.4C87.6016 29.3 88.5016 28.5 89.6016 28.5C90.7016 28.5 91.6016 29.3 91.6016 30.4Z" stroke="#00FF94" stroke-width="2" stroke-miterlimit="10"/>
<path d="M115.5 30.4V70.6C115.5 71.7 114.6 72.5 113.5 72.5C112.4 72.5 111.5 71.6 111.5 70.6V30.4C111.5 29.3 112.4 28.5 113.5 28.5C114.5 28.5 115.5 29.3 115.5 30.4Z" stroke="#00FF94" stroke-width="2" stroke-miterlimit="10"/>
<path d="M139.301 30.4V70.6C139.301 71.7 138.401 72.5 137.301 72.5C136.201 72.5 135.301 71.6 135.301 70.6V30.4C135.301 29.3 136.201 28.5 137.301 28.5C138.401 28.5 139.301 29.3 139.301 30.4Z" stroke="#00FF94" stroke-width="2" stroke-miterlimit="10"/>
<path d="M163.199 30.4V32.7C161.699 33.8 160.399 35.1 159.199 36.5V30.4C159.199 29.3 160.099 28.5 161.199 28.5C162.299 28.5 163.199 29.3 163.199 30.4Z" stroke="#00FF94" stroke-width="2" stroke-miterlimit="10"/>
<path d="M163.199 68.3V70.6C163.199 71.7 162.299 72.5 161.199 72.5C160.099 72.5 159.199 71.6 159.199 70.6V64.5C160.399 65.9 161.699 67.2 163.199 68.3Z" stroke="#00FF94" stroke-width="2" stroke-miterlimit="10"/>
<path d="M194.099 37.8004C192.099 34.9004 189.299 32.5004 186.099 30.8004C184.899 30.2004 183.699 29.7004 182.399 29.3004C180.399 28.7004 178.299 28.4004 176.099 28.4004C171.199 28.4004 166.799 30.0004 163.199 32.7004C161.699 33.8004 160.399 35.1004 159.199 36.5004C158.699 37.0004 158.299 37.6004 157.899 38.2004C155.599 41.7004 154.199 45.9004 154.199 50.5004C154.199 54.6004 155.299 58.5004 157.299 61.8004C157.899 62.8004 158.499 63.7004 159.199 64.5004C160.399 65.9004 161.699 67.2004 163.199 68.3004C166.799 71.0004 171.299 72.6004 176.099 72.6004C178.299 72.6004 180.399 72.3004 182.399 71.7004C183.699 71.3004 184.899 70.8004 186.099 70.2004C189.299 68.6004 191.999 66.2004 194.099 63.2004C196.599 59.6004 198.099 55.2004 198.099 50.5004C198.099 45.8004 196.599 41.4004 194.099 37.8004ZM186.099 56.3004C185.099 57.9004 183.699 59.2004 182.099 60.1004C180.299 61.1004 178.299 61.7004 176.099 61.7004C169.499 61.7004 164.199 56.2004 164.199 49.4004C164.199 44.3004 167.199 40.0004 171.499 38.1004C172.899 37.5004 174.499 37.1004 176.199 37.1004C177.899 37.1004 179.499 37.4004 180.899 38.1004C181.299 38.3004 181.799 38.5004 182.199 38.8004C183.799 39.7004 185.199 41.1004 186.199 42.6004C187.499 44.5004 188.199 46.9004 188.199 49.4004C188.199 51.9004 187.399 54.3004 186.099 56.3004Z" stroke="#00FF94" stroke-width="2" stroke-miterlimit="10"/>
<path d="M188.099 49.4996C188.099 51.9996 187.399 54.2996 186.099 56.2996C185.099 57.8996 183.699 59.1996 182.099 60.0996C180.299 61.0996 178.299 61.6996 176.099 61.6996C169.499 61.6996 164.199 56.1996 164.199 49.3996C164.199 44.2996 167.199 39.9996 171.499 38.0996C172.899 37.4996 174.499 37.0996 176.199 37.0996C177.899 37.0996 179.499 37.3996 180.899 38.0996C181.299 38.2996 181.799 38.4996 182.199 38.7996C183.799 39.6996 185.199 41.0996 186.199 42.5996C187.399 44.6996 188.099 46.9996 188.099 49.4996Z" stroke="#00FF94" stroke-width="2" stroke-miterlimit="10"/>
</svg>
