<svg width="208" height="99" viewBox="0 0 208 99" fill="none" xmlns="http://www.w3.org/2000/svg">
<path d="M36.999 24.7286C36.999 29.1052 35.5573 33.9632 33.6915 41.6222C33.6915 41.6222 29.2391 40.5718 18.5533 38.6899C16.8996 38.3835 15.3306 38.4273 13.8464 38.7336C12.3199 32.694 11.2598 28.5362 11.2598 24.7286C11.2598 6.30324 24.1082 7.00349 24.1082 7.00349C24.1082 7.00349 36.999 6.30324 36.999 24.7286Z" stroke="#00FF94" stroke-width="2" stroke-miterlimit="10"/>
<path d="M33.6935 41.6221V57.3777C33.6935 57.3777 29.8771 57.7278 24.1102 56.1523C19.4033 54.8393 15.9262 52.1258 15.9262 52.1258C15.9262 52.1258 14.8662 56.0648 14.5269 57.3777C14.2725 58.3843 14.018 59.3472 13.806 60.2663C8.67511 59.2596 4.56193 55.4083 2.14491 52.6073C0.618365 50.8129 0.618365 48.1869 2.14491 46.3925C4.51953 43.5915 8.63271 39.6964 13.806 38.7335C15.2901 38.4272 16.8591 38.3834 18.5129 38.6898C29.2411 40.5717 33.6935 41.6221 33.6935 41.6221Z" stroke="#00FF94" stroke-width="2" stroke-miterlimit="10"/>
<path d="M36.999 74.2714C36.999 92.6968 24.1082 91.9965 24.1082 91.9965C24.1082 91.9965 11.2598 92.6968 11.2598 74.2714C11.2598 70.4638 12.3199 66.3061 13.8464 60.2664C14.0585 59.3473 14.3129 58.3845 14.5673 57.3779C14.9065 56.0649 15.9666 52.126 15.9666 52.126C15.9666 52.126 19.4438 54.8394 24.1506 56.1524C29.9176 57.728 33.7338 57.3779 33.7338 57.3779C33.7338 57.3779 33.7763 57.5092 33.7763 57.5529C35.5997 65.0806 36.999 69.8948 36.999 74.2714Z" stroke="#00FF94" stroke-width="2" stroke-miterlimit="10"/>
<path d="M207 47H34V52H207V47Z" stroke="#00FF94" stroke-width="2" stroke-miterlimit="10"/>
</svg>
